<svg width="61" height="61" viewBox="0 0 61 61" fill="none" xmlns="http://www.w3.org/2000/svg">
<g clip-path="url(#clip0_42:7)">
<path d="M40.7556 0C40.0837 0.0619532 39.588 0.662422 39.65 1.33438C39.7119 2.00633 40.3124 2.50195 40.9844 2.44H56.8062L31.3387 27.9456C30.9766 28.2411 30.8098 28.7129 30.9146 29.1704C31.0195 29.6231 31.3769 29.9805 31.8296 30.0854C32.2871 30.1902 32.7589 30.0234 33.0544 29.6613L58.56 4.19375V20.0156C58.5552 20.4541 58.784 20.8639 59.1652 21.0879C59.5465 21.3071 60.0135 21.3071 60.3948 21.0879C60.776 20.8639 61.0048 20.4541 61 20.0156V0H40.9844C40.9462 0 40.9081 0 40.87 0C40.8319 0 40.7937 0 40.7556 0ZM2.44 12.2C1.80141 12.2 1.14852 12.424 0.68625 12.8863C0.223985 13.3485 0 14.0014 0 14.64V58.56C0 59.1986 0.223985 59.8515 0.68625 60.3138C1.14852 60.776 1.80141 61 2.44 61H46.36C46.9986 61 47.6515 60.776 48.1137 60.3138C48.576 59.8515 48.8 59.1986 48.8 58.56V21.96C48.8048 21.5216 48.576 21.1117 48.1948 20.8877C47.8135 20.6685 47.3465 20.6685 46.9652 20.8877C46.584 21.1117 46.3552 21.5216 46.36 21.96V58.56H2.44V14.64H39.04C39.4784 14.6448 39.8883 14.416 40.1123 14.0348C40.3315 13.6535 40.3315 13.1865 40.1123 12.8052C39.8883 12.424 39.4784 12.1952 39.04 12.2H2.44Z" fill="#16F4A4"/>
</g>
<defs>
<clipPath id="clip0_42:7">
<rect width="61" height="61" fill="white"/>
</clipPath>
</defs>
</svg>
