<svg width="78" height="78" viewBox="0 0 78 78" fill="none" xmlns="http://www.w3.org/2000/svg">
<path fill-rule="evenodd" clip-rule="evenodd" d="M39 3.10962C18.6792 3.10962 2.20105 19.5841 2.20105 39.9086C2.20105 56.1679 12.7451 69.9611 27.3664 74.8276C29.2049 75.1688 29.8801 74.0293 29.8801 73.0573C29.8801 72.1798 29.846 69.281 29.8301 66.2061C19.5926 68.4322 17.4324 61.8643 17.4324 61.8643C15.7584 57.6109 13.3465 56.4799 13.3465 56.4799C10.0071 54.196 13.5982 54.2435 13.5982 54.2435C17.2928 54.5025 19.2392 58.0356 19.2392 58.0356C22.5213 63.6602 27.8478 62.0344 29.9477 61.0947C30.278 58.7163 31.2317 57.0923 32.2841 56.1734C24.1105 55.2441 15.5177 52.0881 15.5177 37.9878C15.5177 33.9702 16.9558 30.6875 19.3099 28.1098C18.9272 27.1836 17.6676 23.4408 19.6657 18.372C19.6657 18.372 22.7553 17.383 29.7875 22.1441C32.7234 21.3281 35.8721 20.918 39 20.904C42.1261 20.918 45.2765 21.3269 48.218 22.1428C55.2417 17.3818 58.3275 18.3708 58.3275 18.3708C60.3305 23.439 59.071 27.1824 58.6889 28.1086C61.0484 30.6863 62.4762 33.969 62.4762 37.9866C62.4762 52.1204 53.8675 55.2319 45.6732 56.1435C46.9938 57.2855 48.1699 59.5256 48.1699 62.9582C48.1699 67.8819 48.1272 71.8447 48.1272 73.0567C48.1272 74.036 48.7902 75.1834 50.6549 74.8221C65.2677 69.9507 75.7995 56.1618 75.7995 39.9086C75.7989 19.5853 59.3226 3.11023 39 3.11023V3.10962Z" fill="#16F4A4"/>
<path d="M16.1386 55.9443C16.0576 56.1271 15.77 56.1819 15.5079 56.057C15.2398 55.9376 15.0905 55.6883 15.1771 55.5049C15.2563 55.316 15.5445 55.2642 15.8108 55.3904C16.0789 55.5104 16.2313 55.7621 16.138 55.9449L16.1386 55.9443ZM17.6292 57.6073C17.4543 57.77 17.1112 57.6944 16.8784 57.4366C16.6371 57.1807 16.592 56.8376 16.7706 56.6725C16.9522 56.5104 17.2849 56.5872 17.5262 56.8431C17.7663 57.1027 17.8138 57.4427 17.6298 57.6079L17.6292 57.6073ZM19.0807 59.7261C18.8552 59.8833 18.486 59.7364 18.2581 59.4092C18.0326 59.0813 18.0326 58.6883 18.2641 58.5317C18.4914 58.3745 18.8552 58.5164 19.0868 58.8406C19.3111 59.1727 19.3111 59.5658 19.0807 59.7254V59.7261ZM21.0679 61.7742C20.8668 61.9966 20.4366 61.9369 20.1221 61.634C19.801 61.3372 19.7114 60.9149 19.9131 60.6931C20.1179 60.4701 20.5499 60.5323 20.8662 60.8333C21.1873 61.1294 21.2842 61.5524 21.0691 61.7736L21.0679 61.7742ZM23.8101 62.9631C23.7205 63.2513 23.3073 63.3823 22.8899 63.2592C22.4737 63.1331 22.2013 62.7961 22.2866 62.5048C22.3719 62.2141 22.7881 62.0782 23.208 62.2093C23.6242 62.3348 23.8966 62.6699 23.8101 62.9631ZM26.8222 63.183C26.8326 63.4865 26.4791 63.7376 26.0422 63.7437C25.6016 63.754 25.2451 63.5078 25.2409 63.2092C25.2409 62.9027 25.587 62.6547 26.027 62.6462C26.4639 62.6383 26.8228 62.882 26.8228 63.1824L26.8222 63.183ZM29.6241 62.7065C29.6765 63.0021 29.3724 63.3061 28.938 63.3872C28.5114 63.4664 28.1153 63.2824 28.0605 62.9893C28.0081 62.6858 28.3176 62.3817 28.7442 62.3031C29.1793 62.2281 29.5693 62.4067 29.6241 62.7071V62.7065Z" fill="#16F4A4"/>
</svg>
