<svg width="64" height="64" viewBox="0 0 64 64" fill="none" xmlns="http://www.w3.org/2000/svg">
<path d="M59.2787 0.000242359H4.72131C3.48344 -0.0123555 2.29113 0.466623 1.406 1.33208C0.52087 2.19753 0.015219 3.37877 0 4.6166V59.3939C0.0179713 60.6299 0.524832 61.8084 1.40966 62.6716C2.29449 63.5348 3.48524 64.0124 4.72131 63.9998H59.2787C60.5166 64.0096 61.7081 63.529 62.5928 62.663C63.4775 61.797 63.9834 60.616 64 59.3782V4.60086C63.9779 3.36666 63.4696 2.19106 62.5855 1.32957C61.7014 0.468092 60.5131 -0.00963122 59.2787 0.000242359V0.000242359ZM18.9744 54.5572H9.4741V23.9896H18.9744V54.5572ZM14.2531 19.8244C13.1635 19.8254 12.098 19.5032 11.1915 18.8986C10.285 18.294 9.57817 17.4341 9.16046 16.4277C8.74276 15.4213 8.63293 14.3137 8.84487 13.2448C9.05681 12.176 9.581 11.1941 10.3511 10.4232C11.1213 9.65235 12.1027 9.12723 13.1713 8.91427C14.24 8.70131 15.3478 8.81008 16.3545 9.22683C17.3613 9.64357 18.2219 10.3496 18.8274 11.2555C19.4329 12.1614 19.7561 13.2266 19.7561 14.3162C19.7547 15.0404 19.6105 15.7573 19.3318 16.4257C19.053 17.0942 18.6452 17.7011 18.1316 18.2117C17.6181 18.7223 17.0088 19.1267 16.3388 19.4016C15.6688 19.6765 14.9511 19.8166 14.2269 19.8139L14.2531 19.8244ZM54.5574 54.5572H45.057V39.6852C45.057 36.1442 44.9941 31.5856 40.1207 31.5856C35.2472 31.5856 34.4184 35.4465 34.4184 39.4544V54.5572H24.9338V23.9896H34.0407V28.1863H34.1666C35.4361 25.7837 38.5311 23.2499 43.1528 23.2499C52.7738 23.2289 54.5574 29.5607 54.5574 37.7705V54.5572Z" fill="#16F4A4"/>
</svg>
