<svg width="117" height="112" viewBox="0 0 117 112" fill="none" xmlns="http://www.w3.org/2000/svg">
<rect x="19" y="14" width="98" height="98" rx="7" fill="#CDCDCD" fill-opacity="0.18"/>
<rect width="98" height="98" rx="7" fill="#1D2C44"/>
<path d="M21.9201 30.976V32.884C20.9961 32.884 20.1501 32.98 19.3821 33.172C18.6141 33.352 18.0141 33.664 17.5821 34.108C17.1501 34.552 16.9701 35.158 17.0421 35.926L17.8521 43.936C17.9841 45.292 17.8281 46.324 17.3841 47.032C16.9521 47.728 16.2081 48.184 15.1521 48.4C16.2201 48.604 16.9701 49.036 17.4021 49.696C17.8461 50.344 17.9961 51.4 17.8521 52.864L17.0421 60.874C16.9701 61.654 17.1441 62.266 17.5641 62.71C17.9961 63.154 18.5961 63.466 19.3641 63.646C20.1441 63.826 20.9961 63.916 21.9201 63.916V65.824C21.1041 65.824 20.2641 65.746 19.4001 65.59C18.5481 65.434 17.7621 65.164 17.0421 64.78C16.3341 64.396 15.7821 63.856 15.3861 63.16C15.0021 62.476 14.8701 61.594 14.9901 60.514L15.7821 53.17C15.8661 52.378 15.8061 51.694 15.6021 51.118C15.4101 50.53 14.9061 50.08 14.0901 49.768C13.2741 49.444 11.9721 49.282 10.1841 49.282V47.518C11.9721 47.518 13.2741 47.362 14.0901 47.05C14.9181 46.738 15.4281 46.294 15.6201 45.718C15.8121 45.142 15.8661 44.458 15.7821 43.666L14.9901 36.268C14.8821 35.2 15.0201 34.324 15.4041 33.64C15.8001 32.944 16.3521 32.404 17.0601 32.02C17.7681 31.636 18.5481 31.366 19.4001 31.21C20.2641 31.054 21.1041 30.976 21.9201 30.976ZM46.5121 43.018C46.5121 44.278 46.2301 45.376 45.6661 46.312C45.1021 47.236 44.3401 47.998 43.3801 48.598C42.4201 49.186 41.3401 49.606 40.1401 49.858L47.7361 61H44.8561L37.6921 50.038H33.8401V61H31.5361V36.268H37.4581C40.4221 36.268 42.6721 36.844 44.2081 37.996C45.7441 39.148 46.5121 40.822 46.5121 43.018ZM43.9741 43.018C43.9741 41.314 43.4821 40.096 42.4981 39.364C41.5261 38.62 40.0021 38.248 37.9261 38.248H33.8401V48.058H37.8541C39.7861 48.058 41.2861 47.68 42.3541 46.924C43.4341 46.156 43.9741 44.854 43.9741 43.018ZM55.552 61H53.266V36.268H55.552V61ZM55.732 47.788L66.37 36.268H69.196L58.738 47.662L69.88 61H66.874L55.732 47.788ZM76.0939 30.976C76.9099 30.976 77.7439 31.054 78.5959 31.21C79.4599 31.366 80.2459 31.636 80.9539 32.02C81.6739 32.404 82.2259 32.944 82.6099 33.64C83.0059 34.324 83.1439 35.206 83.0239 36.286L82.2319 43.666C82.1479 44.458 82.2379 45.142 82.5019 45.718C82.7779 46.294 83.3299 46.738 84.1579 47.05C84.9979 47.362 86.2219 47.518 87.8299 47.518V49.282C86.2219 49.282 84.9979 49.444 84.1579 49.768C83.3299 50.08 82.7779 50.53 82.5019 51.118C82.2379 51.694 82.1479 52.378 82.2319 53.17L83.0239 60.532C83.1319 61.6 82.9879 62.476 82.5919 63.16C82.2079 63.856 81.6619 64.396 80.9539 64.78C80.2459 65.164 79.4599 65.434 78.5959 65.59C77.7439 65.746 76.9099 65.824 76.0939 65.824V63.916C77.0179 63.916 77.8639 63.826 78.6319 63.646C79.3999 63.466 79.9999 63.154 80.4319 62.71C80.8759 62.266 81.0559 61.654 80.9719 60.874L80.1619 52.864C80.0179 51.4 80.1739 50.35 80.6299 49.714C81.0979 49.066 82.0159 48.646 83.3839 48.454C82.1119 48.214 81.2239 47.74 80.7199 47.032C80.2159 46.312 80.0299 45.28 80.1619 43.936L80.9719 35.926C81.0559 35.158 80.8759 34.552 80.4319 34.108C79.9999 33.664 79.3999 33.352 78.6319 33.172C77.8759 32.98 77.0299 32.884 76.0939 32.884V30.976Z" fill="#00CECB"/>
</svg>
